HIERARCHY
ROOT Hips
{
	OFFSET 0.000000 0.000000 0.000000 
	CHANNELS 6 Xposition Yposition Zposition Zrotation Yrotation Xrotation
	JOINT LeftUpLeg
	{
		OFFSET 1.363060 -1.794630 0.839290 
		CHANNELS 3 Zrotation Yrotation Xrotation
		JOINT LeftLeg
		{
			OFFSET 2.448110 -6.726130 0.000000 
			CHANNELS 3 Zrotation Yrotation Xrotation
			JOINT LeftFoot
			{
				OFFSET 2.562200 -7.039590 0.000000 
				CHANNELS 3 Zrotation Yrotation Xrotation
				JOINT LeftToeBase
				{
					OFFSET 0.157640 -0.433110 2.322550 
					CHANNELS 3 Zrotation Yrotation Xrotation
					End Site
					{
						OFFSET 0.000000 0.000000 0.000000 
					}
				}
			}
		}
	}
	JOINT RightUpLeg
	{
		OFFSET -1.305520 -1.794630 0.839290 
		CHANNELS 3 Zrotation Yrotation Xrotation
		JOINT RightLeg
		{
			OFFSET -2.542530 -6.985550 0.000000 
			CHANNELS 3 Zrotation Yrotation Xrotation
			JOINT RightFoot
			{
				OFFSET -2.568260 -7.056230 0.000000 
				CHANNELS 3 Zrotation Yrotation Xrotation
				JOINT RightToeBase
				{
					OFFSET -0.164730 -0.452590 2.363150 
					CHANNELS 3 Zrotation Yrotation Xrotation
					End Site
					{
						OFFSET 0.000000 0.000000 0.000000 
					}
				}
			}
		}
	}
	JOINT Spine
	{
		OFFSET 0.028270 2.035590 -0.193380 
		CHANNELS 3 Zrotation Yrotation Xrotation
		JOINT Spine1
		{
			OFFSET 0.056720 2.048850 -0.042750 
			CHANNELS 3 Zrotation Yrotation Xrotation
			JOINT Neck1
			{
				OFFSET -0.054170 1.746240 0.172020 
				CHANNELS 3 Zrotation Yrotation Xrotation
				JOINT Head
				{
					OFFSET 0.104070 1.761360 -0.123970 
					CHANNELS 3 Zrotation Yrotation Xrotation
					End Site
					{
						OFFSET 0.000000 0.000000 0.000000 
					}
				}
			}
			JOINT LeftArm
			{
				OFFSET 3.362410 1.200890 -0.311210 
				CHANNELS 3 Zrotation Yrotation Xrotation
				JOINT LeftForeArm
				{
					OFFSET 4.983000 -0.000000 -0.000000 
					CHANNELS 3 Zrotation Yrotation Xrotation
					JOINT LeftHand
					{
						OFFSET 3.483560 -0.000000 -0.000000 
						CHANNELS 3 Zrotation Yrotation Xrotation
						JOINT LeftHandIndex1
						{
							OFFSET 0.715260 -0.000000 -0.000000 
							CHANNELS 3 Zrotation Yrotation Xrotation
							End Site
							{
								OFFSET 0.000000 0.000000 0.000000 
							}
						}
					}
				}
			}
			JOINT RightArm
			{
				OFFSET -3.136600 1.374050 -0.404650 
				CHANNELS 3 Zrotation Yrotation Xrotation
				JOINT RightForeArm
				{
					OFFSET -5.241900 -0.000000 -0.000000 
					CHANNELS 3 Zrotation Yrotation Xrotation
					JOINT RightHand
					{
						OFFSET -3.444170 -0.000000 -0.000000 
						CHANNELS 3 Zrotation Yrotation Xrotation
						JOINT RightHandIndex1
						{
							OFFSET -0.622530 -0.000000 -0.000000 
							CHANNELS 3 Zrotation Yrotation Xrotation
							End Site
							{
								OFFSET 0.000000 0.000000 0.000000 
							}
						}
					}
				}
			}
		}
	}
}
MOTION
Frames: 17
Frame Time: 0.041667
0.491288 17.813335 -13.969422 -2.158247 -1.045482 6.753827 -14.963705 4.649548 -13.969741 -0.544055 5.368244 14.865860 0.112013 1.153367 -0.146107 0.203300 -2.903500 -8.010300 19.969706 0.588935 -11.620586 -0.113680 -6.188617 17.589829 -0.292297 0.027309 -4.618336 -0.180600 -2.737200 7.547900 1.448187 -0.598977 -1.511031 0.778544 -0.641059 9.097149 2.986298 0.299872 26.877888 0.753700 0.474400 10.705200 -98.446700 -10.531499 37.512849 7.831368 -17.349878 -1.229851 -0.106181 -0.706494 -3.682072 -7.125000 0.000000 0.000000 95.906342 10.688160 19.287676 -9.598087 21.082813 -2.028715 0.720582 0.881883 32.137027 7.125000 0.000000 0.000000 
0.489362 17.812625 -13.970537 -2.176586 -1.016003 6.747478 -14.930614 4.618153 -13.964796 -0.543489 5.371110 14.873310 0.111068 1.158542 -0.156548 0.200100 -2.880100 -7.945200 19.997994 0.609240 -11.606818 -0.114629 -6.191550 17.598198 -0.287599 -0.004597 -4.641619 -0.184000 -2.762700 7.618800 1.450196 -0.613206 -1.510253 0.766031 -0.647852 9.101615 2.974339 0.307980 26.865005 0.746100 0.478500 10.703400 -98.636537 -10.813087 37.074203 7.533535 -16.801739 -1.130681 -0.122516 -0.699747 -3.228459 -7.125000 0.000000 0.000000 95.934545 10.709702 19.305351 -9.587219 21.064083 -2.023906 0.718395 0.884320 32.159137 7.125000 0.000000 0.000000 
0.488145 17.811915 -13.971247 -2.165638 -0.984119 6.741609 -14.935284 4.608952 -13.964251 -0.542612 5.375125 14.884862 0.115787 1.134630 -0.171413 0.201900 -2.893100 -7.981100 19.988712 0.568461 -11.619824 -0.116252 -6.194770 17.608424 -0.293299 0.029415 -4.640784 -0.190500 -2.810600 7.752000 1.448738 -0.618513 -1.512309 0.763444 -0.650180 9.092019 2.984792 0.293094 26.811434 0.748000 0.471800 10.678300 -98.692244 -10.795826 37.176789 7.544536 -16.819848 -1.134150 -0.117344 -0.701048 -3.316426 -7.125000 0.000000 0.000000 95.947540 10.688386 19.345527 -9.604890 21.092657 -2.031469 0.718812 0.881864 32.112678 7.125000 0.000000 0.000000 
0.486421 17.811509 -13.972768 -2.179682 -0.964870 6.734518 -14.911586 4.594902 -13.965220 -0.541651 5.378678 14.894793 0.116134 1.133393 -0.181957 0.200300 -2.881700 -7.949400 20.012363 0.556597 -11.624296 -0.117547 -6.198338 17.618491 -0.291166 0.016014 -4.648255 -0.184100 -2.763500 7.621100 1.449182 -0.618365 -1.516744 0.756934 -0.649628 9.071773 2.952022 0.312268 26.828186 0.724800 0.483400 10.692600 -98.741040 -10.734421 37.272299 7.583205 -16.885948 -1.146327 -0.116828 -0.701204 -3.366595 -7.125000 0.000000 0.000000 95.964971 10.671483 19.387052 -9.611386 21.101323 -2.033236 0.717878 0.883157 32.095812 7.125000 0.000000 0.000000 
0.484900 17.811002 -13.973883 -2.186445 -0.943005 6.725796 -14.895994 4.580938 -13.961437 -0.540791 5.381389 14.902863 0.116888 1.129853 -0.193326 0.200000 -2.879500 -7.943400 20.026015 0.539745 -11.628746 -0.119294 -6.202823 17.631632 -0.291798 0.018638 -4.656046 -0.183300 -2.757400 7.604000 1.449496 -0.620965 -1.518915 0.754210 -0.650888 9.060250 2.937863 0.318012 26.818527 0.713900 0.487200 10.690700 -98.811376 -10.730486 37.296824 7.571905 -16.861533 -1.142401 -0.117072 -0.700777 -3.361471 -7.125000 0.000000 0.000000 95.979622 10.659880 19.425532 -9.617545 21.110129 -2.035302 0.717418 0.883420 32.080447 7.125000 0.000000 0.000000 
0.483379 17.810394 -13.974999 -2.191506 -0.925237 6.716518 -14.883165 4.568082 -13.958463 -0.539688 5.385308 14.913700 0.116792 1.130749 -0.206542 0.200200 -2.880800 -7.947200 20.037329 0.519151 -11.633958 -0.120857 -6.206475 17.642443 -0.293099 0.026192 -4.659645 -0.182000 -2.748000 7.578000 1.449626 -0.621392 -1.520986 0.753946 -0.651333 9.048875 2.922133 0.323920 26.813621 0.702400 0.491000 10.691400 -98.872175 -10.706328 37.358940 7.582157 -16.876728 -1.145630 -0.116110 -0.700762 -3.391896 -7.125000 0.000000 0.000000 95.990887 10.648432 19.464695 -9.622847 21.117509 -2.036975 0.717280 0.883370 32.069475 7.125000 0.000000 0.000000 
0.481959 17.809988 -13.976215 -2.197035 -0.910076 6.707479 -14.870395 4.554586 -13.953740 -0.538954 5.387802 14.920753 0.115662 1.136584 -0.216856 0.200600 -2.883900 -7.955600 20.048756 0.497849 -11.641535 -0.122490 -6.210865 17.655107 -0.295141 0.037637 -4.662708 -0.180900 -2.739600 7.554500 1.449631 -0.620347 -1.522649 0.754086 -0.651294 9.039399 2.902739 0.330102 26.816041 0.688500 0.495000 10.696400 -98.932484 -10.686623 37.420717 7.590078 -16.887608 -1.148073 -0.115648 -0.700569 -3.416136 -7.125000 0.000000 0.000000 96.000430 10.638765 19.503445 -9.626911 21.122964 -2.038207 0.717151 0.883424 32.061743 7.125000 0.000000 0.000000 
0.480641 17.809583 -13.977331 -2.202617 -0.897313 6.699412 -14.858217 4.540327 -13.948658 -0.538313 5.390132 14.927286 0.113709 1.146590 -0.226298 0.201200 -2.888200 -7.967600 20.059588 0.474002 -11.650391 -0.124105 -6.214779 17.666667 -0.297912 0.054435 -4.663928 -0.180500 -2.736300 7.545400 1.449343 -0.617559 -1.523658 0.753828 -0.650414 9.033210 2.883248 0.333983 26.822009 0.674400 0.498100 10.703200 -98.990012 -10.673057 37.494225 7.595853 -16.894742 -1.149742 -0.115361 -0.700413 -3.448203 -7.125000 0.000000 0.000000 96.008595 10.630260 19.538628 -9.630765 21.128568 -2.039488 0.717098 0.883262 32.059263 7.125000 0.000000 0.000000 
0.479424 17.809279 -13.978446 -2.207774 -0.885424 6.693625 -14.846900 4.525252 -13.945667 -0.537641 5.392775 14.934119 0.111433 1.158377 -0.234147 0.202000 -2.894000 -7.983800 20.069931 0.447283 -11.661478 -0.125316 -6.217822 17.675565 -0.301023 0.073147 -4.662272 -0.179900 -2.731900 7.533300 1.448648 -0.613643 -1.524397 0.752385 -0.648993 9.030244 2.861983 0.336726 26.835580 0.658100 0.501200 10.715200 -99.044735 -10.663969 37.578005 7.600683 -16.900249 -1.150858 -0.115351 -0.700256 -3.483118 -7.125000 0.000000 0.000000 96.015651 10.623475 19.569981 -9.634633 21.134318 -2.040874 0.716926 0.883193 32.059279 7.125000 0.000000 0.000000 
0.478208 17.809076 -13.979460 -2.215552 -0.876456 6.688692 -14.833010 4.511440 -13.943376 -0.536832 5.395380 14.941384 0.109039 1.170871 -0.241569 0.202400 -2.897100 -7.992500 20.082986 0.422467 -11.671340 -0.126097 -6.219890 17.681607 -0.303906 0.091155 -4.659049 -0.179300 -2.727800 7.521700 1.447879 -0.607570 -1.525509 0.750621 -0.646444 9.026272 2.845027 0.336868 26.854580 0.643400 0.503600 10.729100 -99.095608 -10.653948 37.673708 7.606095 -16.907054 -1.152179 -0.115406 -0.700128 -3.525637 -7.125000 0.000000 0.000000 96.022213 10.613217 19.595638 -9.638566 21.140218 -2.042301 0.716791 0.882984 32.062053 7.125000 0.000000 0.000000 
0.476991 17.808873 -13.980373 -2.225028 -0.870117 6.685791 -14.817572 4.498753 -13.942685 -0.536090 5.398179 14.948858 0.106306 1.185198 -0.248852 0.203000 -2.900800 -8.002600 20.098032 0.400695 -11.680645 -0.126612 -6.221003 17.684818 -0.306365 0.107106 -4.654023 -0.178800 -2.723400 7.509500 1.447256 -0.600334 -1.526431 0.749956 -0.643412 9.025568 2.831270 0.336122 26.879884 0.630000 0.506000 10.746500 -99.144929 -10.643674 37.773953 7.613231 -16.917405 -1.154090 -0.115249 -0.700092 -3.566647 -7.125000 0.000000 0.000000 96.027417 10.604188 19.618970 -9.641613 21.144675 -2.043260 0.716688 0.883134 32.062395 7.125000 0.000000 0.000000 
0.475875 17.808772 -13.981083 -2.233163 -0.866142 6.683668 -14.804160 4.488938 -13.942222 -0.535303 5.400610 14.955575 0.103758 1.198334 -0.256810 0.203300 -2.903400 -8.009800 20.111364 0.381854 -11.688538 -0.126812 -6.221581 17.686532 -0.308546 0.121516 -4.647609 -0.178500 -2.721600 7.504500 1.446829 -0.592207 -1.528087 0.753649 -0.640271 9.023632 2.826903 0.332716 26.909790 0.622100 0.507300 10.765400 -99.193633 -10.627728 37.875550 7.622744 -16.932388 -1.156669 -0.115076 -0.700132 -3.605225 -7.125000 0.000000 0.000000 96.030055 10.593350 19.635575 -9.642627 21.145844 -2.043335 0.716672 0.883436 32.067720 7.125000 0.000000 0.000000 
0.474760 17.808670 -13.981488 -2.240635 -0.864342 6.682019 -14.791789 4.480437 -13.940381 -0.534745 5.402300 14.960042 0.100934 1.212742 -0.265340 0.203600 -2.905600 -8.016200 20.123968 0.364894 -11.695987 -0.127078 -6.222071 17.687995 -0.310502 0.134978 -4.640780 -0.178100 -2.718700 7.496400 1.446763 -0.583072 -1.529745 0.761508 -0.637105 9.023246 2.833590 0.326590 26.942366 0.620800 0.507300 10.784500 -99.242743 -10.610489 37.978399 7.632906 -16.948874 -1.159470 -0.114922 -0.700216 -3.643024 -7.125000 0.000000 0.000000 96.030780 10.583452 19.643716 -9.640919 21.142506 -2.042279 0.716809 0.883920 32.074975 7.125000 0.000000 0.000000 
0.473645 17.808569 -13.981792 -2.245023 -0.864192 6.680678 -14.783154 4.474730 -13.937405 -0.534428 5.402874 14.961704 0.098325 1.226297 -0.273174 0.203600 -2.905600 -8.015900 20.132815 0.348772 -11.703421 -0.127245 -6.222639 17.689691 -0.312705 0.149390 -4.633835 -0.178000 -2.717500 7.493100 1.446487 -0.573258 -1.531726 0.772223 -0.633886 9.023048 2.847661 0.318751 26.978418 0.624100 0.506500 10.805600 -99.289117 -10.591100 38.086471 7.645543 -16.970138 -1.163155 -0.114521 -0.700336 -3.684107 -7.125000 0.000000 0.000000 96.031642 10.575737 19.637913 -9.634882 21.132066 -2.039533 0.717423 0.883916 32.096720 7.125000 0.000000 0.000000 
0.472631 17.808569 -13.981995 -2.247572 -0.864819 6.679591 -14.776948 4.472099 -13.934398 -0.534287 5.402498 14.960871 0.096307 1.236373 -0.279078 0.203100 -2.902100 -8.006200 20.139393 0.332076 -11.711575 -0.127499 -6.223289 17.691555 -0.315341 0.166863 -4.625715 -0.178400 -2.720700 7.502100 1.446146 -0.562967 -1.534146 0.784345 -0.630429 9.021644 2.865898 0.309272 27.017179 0.629900 0.504900 10.828000 -99.332206 -10.570935 38.199244 7.659806 -16.994311 -1.167479 -0.114247 -0.700385 -3.723428 -7.125000 0.000000 0.000000 96.032159 10.569095 19.622034 -9.626053 21.117094 -2.035741 0.718216 0.883869 32.125508 7.125000 0.000000 0.000000 
0.471617 17.808467 -13.981995 -2.251412 -0.865695 6.677919 -14.769647 4.472384 -13.931330 -0.534376 5.401598 14.958968 0.095155 1.242324 -0.283466 0.202300 -2.896200 -7.989800 20.147121 0.315740 -11.718211 -0.127662 -6.223530 17.692526 -0.318063 0.184990 -4.617870 -0.178900 -2.724300 7.512100 1.445697 -0.551903 -1.537288 0.795451 -0.626548 9.017067 2.886066 0.297176 27.058134 0.636500 0.502200 10.850500 -99.367413 -10.547402 38.333952 7.677573 -17.025098 -1.172989 -0.113586 -0.700506 -3.778733 -7.125000 0.000000 0.000000 96.034259 10.560043 19.592743 -9.614931 21.098433 -2.030935 0.719248 0.883613 32.166811 7.125000 0.000000 0.000000 
0.470805 17.808569 -13.981995 -2.256696 -0.867276 6.676624 -14.761155 4.476374 -13.930455 -0.534340 5.400776 14.957387 0.094838 1.244215 -0.286729 0.201500 -2.890600 -7.974300 20.156443 0.299447 -11.723922 -0.127624 -6.223170 17.691618 -0.320727 0.202832 -4.608284 -0.179100 -2.726200 7.517500 1.445229 -0.540656 -1.540639 0.804701 -0.622131 9.012601 2.904768 0.284623 27.101011 0.642200 0.499400 10.873600 -99.395112 -10.523641 38.488796 7.697901 -17.060850 -1.179662 -0.112346 -0.700680 -3.846099 -7.125000 0.000000 0.000000 96.038664 10.553017 19.548546 -9.600172 21.073859 -2.024934 0.720481 0.883126 32.224607 7.125000 0.000000 0.000000 
